PathFileType	4	(X/Y/Z)	E:\3-PhD\Data\MocapData\ElaboratedData\009\pre\dynamicElaborations\RunA1\RunA1.trc
DataRate	CameraRate	NumFrames	NumMarkers	Units	OrigDataRate	DataStartFrame
200	200	4	54	mm	200	4.160000e+02
Frame#	Time	FHD			LBHD			RBHD			C7			T10			CLAV			LSHO			LUUPA			LMUPA			LDUPA			LLEP			LMEP			LRAD			LUL			LRFIN			RSHO			RUPA1			RMUPA			RDUPA			RLEP			RMEP			RRAD			RUL			RUFIN			RASI			USACR			LSACR			RSACR			LTHI1			LTHI2			LTHI3			LTHI4			LTIB1			LTIB2			LTIB3			LTIB4			LLMAL			LHEE			LMT1			LMT2			RTHI			RTHI2			RTHI3			RTHI4			RLFC			RTIB1			RTIB2			RTIB3			RTIB4			RLMAL			RHEE			RMT1			RMT2			RMT5		
		X1	Y1	Z1	X2	Y2	Z2	X3	Y3	Z3	X4	Y4	Z4	X5	Y5	Z5	X6	Y6	Z6	X7	Y7	Z7	X8	Y8	Z8	X9	Y9	Z9	X10	Y10	Z10	X11	Y11	Z11	X12	Y12	Z12	X13	Y13	Z13	X14	Y14	Z14	X15	Y15	Z15	X16	Y16	Z16	X17	Y17	Z17	X18	Y18	Z18	X19	Y19	Z19	X20	Y20	Z20	X21	Y21	Z21	X22	Y22	Z22	X23	Y23	Z23	X24	Y24	Z24	X25	Y25	Z25	X26	Y26	Z26	X27	Y27	Z27	X28	Y28	Z28	X29	Y29	Z29	X30	Y30	Z30	X31	Y31	Z31	X32	Y32	Z32	X33	Y33	Z33	X34	Y34	Z34	X35	Y35	Z35	X36	Y36	Z36	X37	Y37	Z37	X38	Y38	Z38	X39	Y39	Z39	X40	Y40	Z40	X41	Y41	Z41	X42	Y42	Z42	X43	Y43	Z43	X44	Y44	Z44	X45	Y45	Z45	X46	Y46	Z46	X47	Y47	Z47	X48	Y48	Z48	X49	Y49	Z49	X50	Y50	Z50	X51	Y51	Z51	X52	Y52	Z52	X53	Y53	Z53	X54	Y54	Z54	

464	2.315000	-1543.741663	1551.271496	344.250993	-1718.084158	1578.568299	251.532673	-1684.950326	1559.366846	371.463633	-1783.728857	1437.700592	293.654127	-1964.449003	1136.398365	288.197583	-1671.635473	1310.880894	295.149167	-1694.866940	1410.528955	178.140602	-1628.218480	1276.546301	59.365153	-1585.011506	1276.328744	75.960320	-1582.715492	1225.336746	44.597921	-1511.040509	1127.752997	25.041598	-1520.471465	1081.866011	85.825869	-1422.742282	1309.465857	181.101463	-1352.777281	1287.400773	169.129172	-1407.327551	1373.562059	156.363847	-1696.140611	1381.450111	451.041493	-1849.203180	1379.108422	541.100732	-1870.007308	1336.603980	543.035907	-1914.711661	1377.209282	548.742158	-2047.220398	1371.606185	572.208768	-2062.709870	1365.595393	505.888601	-2192.211811	1148.663280	615.534800	-2235.449641	1202.496045	640.327689	-2208.890233	1114.804889	686.221810	-1851.815490	925.945172	367.629951	-2007.944297	1065.305624	305.417510	-2029.901460	1038.574475	279.830591	-2020.370153	1036.561787	337.213961	-2091.110012	734.971650	106.733390	-2108.333160	650.566185	113.918612	-2069.200403	627.983367	128.034815	-2162.837305	624.344523	126.426624	-2314.215816	376.285425	176.607797	-2393.710279	392.019658	140.918173	-2366.146741	361.127391	154.603808	-2416.984825	298.834312	184.420826	-2566.797924	231.502017	179.583454	-2634.058063	268.477837	229.798967	-2536.828237	74.983394	246.049394	-2539.327692	76.909616	198.886776	-1789.585494	795.128140	452.570170	-1725.539558	789.939192	438.928679	-1708.836836	814.091020	420.026187	-1686.393719	714.498682	422.108513	-1609.454872	652.965710	392.878011	-1628.541502	446.515972	348.801325	-1712.060025	394.697939	396.208359	-1675.324515	379.363221	371.377227	-1688.998982	335.248709	340.860088	-1767.369738	265.409212	382.499267	-1852.882899	232.620214	347.591375	-1637.220716	189.357431	301.373223	-1630.149736	191.485527	343.080239	-1665.839505	174.779777	399.596573	
465	2.320000	-1512.446317	1553.185397	346.753133	-1686.899874	1581.172289	254.389783	-1653.544905	1561.521492	374.185855	-1752.738758	1440.099129	296.068438	-1933.214216	1138.797581	286.239861	-1640.801118	1313.719335	296.948268	-1663.877445	1414.122842	180.508531	-1599.729108	1279.832156	58.963819	-1556.452072	1278.764300	74.712827	-1555.458315	1228.117568	42.948942	-1486.142698	1129.532788	21.519178	-1496.430888	1082.495824	81.451693	-1399.060189	1308.095936	182.249111	-1328.907182	1285.913870	170.550502	-1383.219488	1372.496322	158.653596	-1665.349581	1382.872230	453.237998	-1819.261992	1379.428435	541.535360	-1839.949945	1336.958630	542.950796	-1885.057049	1377.393101	547.684638	-2017.791736	1371.458894	570.093017	-2032.159384	1363.646737	503.303568	-2159.502852	1146.376759	616.094638	-2203.975915	1200.040705	639.195230	-2176.328181	1114.235413	687.600191	-1820.877442	928.148479	367.245051	-1976.336052	1067.831030	302.674700	-1997.923229	1041.000885	276.839742	-1989.367505	1039.159581	334.282514	-2057.046623	736.946077	105.755314	-2074.969418	652.719731	114.346970	-2036.345272	630.030502	129.805839	-2130.047234	627.182600	126.044456	-2289.163952	383.699190	177.191756	-2368.355800	401.753797	142.094395	-2341.516929	370.096239	155.393701	-2393.991222	309.141555	185.201986	-2545.712850	246.288162	180.852847	-2608.959038	289.083505	231.411354	-2527.699461	86.807165	249.520739	-2530.354889	87.383727	202.226182	-1760.520332	795.918781	453.701964	-1696.404884	790.110144	441.041931	-1679.174853	813.913039	422.290056	-1657.739836	714.066215	425.121219	-1580.568032	651.275170	396.824438	-1585.728216	442.816493	351.552599	-1665.667355	384.309640	397.847222	-1627.737172	372.060861	373.092229	-1637.998483	327.574764	341.865544	-1711.626777	251.169059	381.775298	-1794.434877	213.236975	345.683005	-1575.357346	186.377674	301.620015	-1568.851837	188.063574	343.374657	-1603.943583	167.465214	398.699664	
466	2.325000	-1481.095545	1555.248540	349.247752	-1655.622815	1583.716111	257.132515	-1622.114260	1563.640356	376.823026	-1721.568312	1442.539418	298.476664	-1902.071584	1141.569309	284.713009	-1609.986939	1316.519140	298.553445	-1632.664308	1417.472319	182.449353	-1572.057730	1282.266350	58.240759	-1528.666296	1280.072903	72.980956	-1529.446976	1229.843702	40.836558	-1463.081011	1129.839736	17.872080	-1474.626604	1081.910733	76.950936	-1375.147937	1303.728703	183.371602	-1305.167560	1280.585967	171.863192	-1358.083976	1368.145748	161.072698	-1634.547337	1384.149847	455.372678	-1789.270490	1378.864797	542.243776	-1809.708283	1336.354033	543.057873	-1855.292826	1376.426941	547.208171	-1988.199165	1369.517229	568.663631	-2001.663873	1360.177917	501.547906	-2125.572627	1141.732798	616.693447	-2171.409569	1194.852580	638.513126	-2142.196653	1110.821754	688.831207	-1790.144491	930.410898	366.985171	-1944.944967	1070.623819	300.352251	-1966.130575	1043.682029	274.295209	-1958.383724	1041.958829	331.792587	-2022.580461	738.715412	104.830986	-2040.737268	654.624400	114.494137	-2002.462842	631.976462	130.961749	-2096.076089	629.374243	125.535179	-2262.466663	390.290438	177.723790	-2341.105340	411.015629	143.093661	-2315.254098	378.530461	156.147821	-2369.700002	319.519507	186.224076	-2523.468030	262.201686	182.489805	-2582.675890	310.442265	233.000425	-2516.545129	101.340086	253.897511	-2519.466515	100.387046	206.537241	-1731.893427	795.727006	454.973310	-1667.740451	789.011390	443.420640	-1649.827902	812.402431	424.902029	-1629.904076	712.239352	428.266967	-1552.767493	647.974884	400.951660	-1544.435923	438.525528	354.454880	-1620.459497	373.766642	399.647942	-1581.562285	364.637667	375.047397	-1588.548617	320.012898	343.067664	-1657.170459	237.489457	381.231616	-1737.099282	195.148804	343.991307	-1515.856032	183.771427	302.032943	-1509.874285	184.812971	343.816491	-1544.167047	160.418190	397.899955	
467	2.330000	-1449.706806	1557.450375	351.727192	-1624.268159	1586.180919	259.751651	-1590.668456	1565.730588	379.366861	-1690.204371	1445.007702	300.853286	-1871.033489	1144.660792	283.582855	-1579.169066	1319.238579	299.982470	-1601.163940	1420.540578	183.972700	-1545.093490	1283.953716	57.255536	-1501.585137	1280.354684	70.881551	-1504.560081	1230.661655	38.344434	-1441.759410	1128.874256	14.161629	-1454.992014	1080.341102	72.418000	-1350.935850	1296.491675	184.411745	-1281.543878	1271.556855	172.965609	-1331.858498	1360.587902	163.559869	-1603.746017	1385.291844	457.428293	-1759.220389	1377.456899	543.224495	-1779.274152	1334.833415	543.363734	-1825.405619	1374.342957	547.354861	-1958.418170	1365.842225	567.946502	-1971.203612	1355.286796	500.613157	-2090.333450	1134.832278	617.295250	-2137.662322	1187.021393	638.259900	-2106.402113	1104.612950	689.856213	-1759.594313	932.757835	366.894807	-1913.816494	1073.604933	298.413569	-1934.542145	1046.533883	272.159735	-1927.471385	1044.886912	329.716489	-1987.735333	740.199120	103.981859	-2005.706739	656.192892	114.387982	-1967.619811	633.718657	131.537733	-2061.039243	630.861523	124.908834	-2234.221792	396.008403	178.252901	-2312.011240	419.731544	143.909693	-2287.433778	386.381227	156.904048	-2344.149633	329.966260	187.513098	-2499.999614	279.241526	184.462862	-2555.246784	332.507492	234.465075	-2503.152900	118.519240	259.149546	-2506.428115	115.936963	211.801266	-1703.670529	794.597398	456.361817	-1639.527031	786.705319	446.011197	-1620.799679	809.631301	427.812227	-1602.848004	709.121705	431.440546	-1525.972372	643.235013	405.116384	-1504.778397	433.729808	357.462501	-1576.703273	363.226755	401.558716	-1537.046590	357.169404	377.200810	-1540.908024	312.608225	344.494444	-1604.391074	224.488032	380.944785	-1681.380963	178.449219	342.612730	-1459.036595	181.376078	302.672384	-1453.494090	181.604230	344.440920	-1486.840199	153.590501	397.286417	
